<svg width="226" height="266" viewBox="0 0 226 266" fill="none" xmlns="http://www.w3.org/2000/svg">
<g filter="url(#filter0_f_83_1630)">
<ellipse cx="108.012" cy="254.73" rx="82.4287" ry="8.27044" fill="black" fill-opacity="0.15"/>
</g>
<ellipse cx="46.7145" cy="15.0173" rx="46.7145" ry="15.0173" transform="matrix(-0.552805 -0.833311 -0.893541 0.448981 115.214 123.067)" fill="url(#paint0_linear_83_1630)"/>
<path d="M28.6554 7.46206C37.7282 24.047 58.7154 38.2507 70.8202 44.6858C71.8334 45.2244 72.0269 46.5976 71.1943 47.3872L47.1116 70.2286C46.5568 70.7548 45.7093 70.835 45.0865 70.3915C27.4583 57.8377 24.1752 27.4496 24.902 8.09092C24.9696 6.29064 27.7908 5.88155 28.6554 7.46206Z" fill="url(#paint1_linear_83_1630)"/>
<path d="M194.698 7.46206C185.626 24.047 164.638 38.2507 152.534 44.6858C151.52 45.2244 151.327 46.5976 152.159 47.3872L176.242 70.2286C176.797 70.7548 177.644 70.835 178.267 70.3915C195.895 57.8377 199.179 27.4496 198.452 8.09092C198.384 6.29064 195.563 5.88155 194.698 7.46206Z" fill="url(#paint2_linear_83_1630)"/>
<path d="M65.8763 51.9541C73.2871 55.6779 67.733 76.1251 53.4708 97.6243C39.2086 119.123 30.7205 139.724 23.3097 136C15.8988 132.276 12.3715 105.638 26.6337 84.1393C40.8959 62.6402 58.4654 48.2304 65.8763 51.9541Z" fill="url(#paint3_linear_83_1630)"/>
<path d="M159.245 51.9541C151.834 55.6779 157.389 76.1251 171.651 97.6243C185.913 119.123 194.401 139.724 201.812 136C209.223 132.276 212.75 105.638 198.488 84.1393C184.226 62.6402 166.656 48.2304 159.245 51.9541Z" fill="url(#paint4_linear_83_1630)"/>
<ellipse cx="36.9413" cy="11.0273" rx="36.9413" ry="11.0273" transform="matrix(-4.37114e-08 -1 -1 4.37114e-08 138.202 254.729)" fill="url(#paint5_radial_83_1630)"/>
<ellipse cx="36.9413" cy="11.0273" rx="36.9413" ry="11.0273" transform="matrix(-4.37114e-08 -1 -1 4.37114e-08 108.428 254.729)" fill="url(#paint6_radial_83_1630)"/>
<ellipse cx="53.7792" cy="184.177" rx="39.5906" ry="11.7819" transform="rotate(-60 53.7792 184.177)" fill="url(#paint7_linear_83_1630)"/>
<ellipse cx="39.5906" cy="11.7819" rx="39.5906" ry="11.7819" transform="matrix(-0.5 -0.866025 -0.866025 0.5 201.218 212.573)" fill="url(#paint8_linear_83_1630)"/>
<path d="M64.4758 143.889H159.755V219.703C159.755 224.795 155.627 228.924 150.535 228.924H73.6964C68.604 228.924 64.4758 224.795 64.4758 219.703V143.889Z" fill="url(#paint9_radial_83_1630)"/>
<mask id="mask0_83_1630" style="mask-type:alpha" maskUnits="userSpaceOnUse" x="64" y="143" width="96" height="86">
<path d="M64.4758 143.889H159.755V219.703C159.755 224.795 155.627 228.924 150.535 228.924H73.6964C68.604 228.924 64.4758 224.795 64.4758 219.703V143.889Z" fill="url(#paint10_radial_83_1630)"/>
</mask>
<g mask="url(#mask0_83_1630)">
<ellipse cx="112.288" cy="229.091" rx="33.6331" ry="50.4497" fill="url(#paint11_radial_83_1630)"/>
<ellipse cx="112.288" cy="229.091" rx="33.6331" ry="50.4497" fill="url(#paint12_radial_83_1630)"/>
</g>
<path d="M32.7161 98.1279C32.7161 59.4634 64.0598 28.1196 102.724 28.1196H121.507C160.172 28.1196 191.515 59.4634 191.515 98.1279V98.1279C191.515 129.059 166.44 154.134 135.509 154.134H88.7226C57.791 154.134 32.7161 129.059 32.7161 98.1279V98.1279Z" fill="url(#paint13_radial_83_1630)"/>
<path d="M124.969 118.543H99.0551C98.1464 118.543 97.6636 119.554 98.3072 120.195C100.972 122.851 105.908 126.262 112.012 126.262C118.117 126.262 123.052 122.851 125.717 120.195C126.361 119.554 125.878 118.543 124.969 118.543Z" fill="black"/>
<g filter="url(#filter1_d_83_1630)">
<circle cx="70.1856" cy="87.4678" r="22.4073" fill="#F6F6F6"/>
</g>
<circle cx="70.1856" cy="87.4681" r="16.0052" fill="black"/>
<circle cx="76.5876" cy="77.865" r="6.40208" fill="#F6F6F6"/>
<g filter="url(#filter2_d_83_1630)">
<circle cx="153.595" cy="87.4678" r="22.4073" fill="#F6F6F6"/>
</g>
<circle cx="153.595" cy="87.4681" r="16.0052" fill="black"/>
<circle cx="159.357" cy="77.865" r="6.40208" fill="#F6F6F6"/>
<defs>
<filter id="filter0_f_83_1630" x="22.8264" y="243.702" width="170.371" height="22.0544" filterUnits="userSpaceOnUse" color-interpolation-filters="sRGB">
<feFlood flood-opacity="0" result="BackgroundImageFix"/>
<feBlend mode="normal" in="SourceGraphic" in2="BackgroundImageFix" result="shape"/>
<feGaussianBlur stdDeviation="1.37841" result="effect1_foregroundBlur_83_1630"/>
</filter>
<filter id="filter1_d_83_1630" x="43.2969" y="62.4997" width="57.6186" height="57.6186" filterUnits="userSpaceOnUse" color-interpolation-filters="sRGB">
<feFlood flood-opacity="0" result="BackgroundImageFix"/>
<feColorMatrix in="SourceAlpha" type="matrix" values="0 0 0 0 0 0 0 0 0 0 0 0 0 0 0 0 0 0 127 0" result="hardAlpha"/>
<feOffset dx="1.92062" dy="3.84125"/>
<feGaussianBlur stdDeviation="3.20104"/>
<feComposite in2="hardAlpha" operator="out"/>
<feColorMatrix type="matrix" values="0 0 0 0 0.100139 0 0 0 0 0.193954 0 0 0 0 0.233333 0 0 0 0.2 0"/>
<feBlend mode="normal" in2="BackgroundImageFix" result="effect1_dropShadow_83_1630"/>
<feBlend mode="normal" in="SourceGraphic" in2="effect1_dropShadow_83_1630" result="shape"/>
</filter>
<filter id="filter2_d_83_1630" x="126.707" y="62.4997" width="57.6186" height="57.6186" filterUnits="userSpaceOnUse" color-interpolation-filters="sRGB">
<feFlood flood-opacity="0" result="BackgroundImageFix"/>
<feColorMatrix in="SourceAlpha" type="matrix" values="0 0 0 0 0 0 0 0 0 0 0 0 0 0 0 0 0 0 127 0" result="hardAlpha"/>
<feOffset dx="1.92062" dy="3.84125"/>
<feGaussianBlur stdDeviation="3.20104"/>
<feComposite in2="hardAlpha" operator="out"/>
<feColorMatrix type="matrix" values="0 0 0 0 0.100139 0 0 0 0 0.193954 0 0 0 0 0.233333 0 0 0 0.2 0"/>
<feBlend mode="normal" in2="BackgroundImageFix" result="effect1_dropShadow_83_1630"/>
<feBlend mode="normal" in="SourceGraphic" in2="effect1_dropShadow_83_1630" result="shape"/>
</filter>
<linearGradient id="paint0_linear_83_1630" x1="22.0917" y1="2.06745" x2="35.4858" y2="21.949" gradientUnits="userSpaceOnUse">
<stop stop-color="#30C4FE"/>
<stop offset="1" stop-color="#179CD2"/>
</linearGradient>
<linearGradient id="paint1_linear_83_1630" x1="29.2207" y1="20.9518" x2="49.0697" y2="54.8606" gradientUnits="userSpaceOnUse">
<stop stop-color="#D1ECFF"/>
<stop offset="1" stop-color="#93D1FE"/>
</linearGradient>
<linearGradient id="paint2_linear_83_1630" x1="194.133" y1="20.9518" x2="174.284" y2="54.8606" gradientUnits="userSpaceOnUse">
<stop stop-color="#D1ECFF"/>
<stop offset="1" stop-color="#93D1FE"/>
</linearGradient>
<linearGradient id="paint3_linear_83_1630" x1="14.8696" y1="105.586" x2="40.0883" y2="104.494" gradientUnits="userSpaceOnUse">
<stop stop-color="#30C4FE"/>
<stop offset="1" stop-color="#179CD2"/>
</linearGradient>
<linearGradient id="paint4_linear_83_1630" x1="210.252" y1="105.586" x2="185.033" y2="104.494" gradientUnits="userSpaceOnUse">
<stop stop-color="#30C4FE"/>
<stop offset="1" stop-color="#179CD2"/>
</linearGradient>
<radialGradient id="paint5_radial_83_1630" cx="0" cy="0" r="1" gradientUnits="userSpaceOnUse" gradientTransform="translate(14.8868 11.0273) scale(11.0273 36.9413)">
<stop stop-color="#30C4FE"/>
<stop offset="1" stop-color="#179CD2"/>
</radialGradient>
<radialGradient id="paint6_radial_83_1630" cx="0" cy="0" r="1" gradientUnits="userSpaceOnUse" gradientTransform="translate(14.8868 11.0273) scale(11.0273 36.9413)">
<stop stop-color="#30C4FE"/>
<stop offset="1" stop-color="#179CD2"/>
</radialGradient>
<linearGradient id="paint7_linear_83_1630" x1="46.7995" y1="172.232" x2="60.3593" y2="184.14" gradientUnits="userSpaceOnUse">
<stop stop-color="#30C4FE"/>
<stop offset="1" stop-color="#179CD2"/>
</linearGradient>
<linearGradient id="paint8_linear_83_1630" x1="32.6109" y1="-0.163371" x2="46.1707" y2="11.7443" gradientUnits="userSpaceOnUse">
<stop stop-color="#30C4FE"/>
<stop offset="1" stop-color="#179CD2"/>
</linearGradient>
<radialGradient id="paint9_radial_83_1630" cx="0" cy="0" r="1" gradientUnits="userSpaceOnUse" gradientTransform="translate(112.288 189.393) rotate(-90) scale(41.3522 64.468)">
<stop stop-color="#50CEFF"/>
<stop offset="0.311458" stop-color="#30C4FE"/>
<stop offset="0.733333" stop-color="#21ABE3"/>
<stop offset="1" stop-color="#179CD2"/>
</radialGradient>
<radialGradient id="paint10_radial_83_1630" cx="0" cy="0" r="1" gradientUnits="userSpaceOnUse" gradientTransform="translate(112.288 189.393) rotate(-90) scale(41.3522 64.468)">
<stop stop-color="#50CEFF"/>
<stop offset="0.311458" stop-color="#30C4FE"/>
<stop offset="0.733333" stop-color="#21ABE3"/>
<stop offset="1" stop-color="#179CD2"/>
</radialGradient>
<radialGradient id="paint11_radial_83_1630" cx="0" cy="0" r="1" gradientUnits="userSpaceOnUse" gradientTransform="translate(109.531 202.626) rotate(56.9519) scale(27.298 24.2026)">
<stop stop-color="#FFDBD1"/>
<stop offset="0.629166" stop-color="#FEB4AE"/>
<stop offset="1" stop-color="#FE9693"/>
</radialGradient>
<radialGradient id="paint12_radial_83_1630" cx="0" cy="0" r="1" gradientUnits="userSpaceOnUse" gradientTransform="translate(109.531 202.626) rotate(56.9519) scale(27.298 24.2026)">
<stop stop-color="#D1F9FF"/>
<stop offset="0.629166" stop-color="#AEEBFE"/>
<stop offset="1" stop-color="#93D1FE"/>
</radialGradient>
<radialGradient id="paint13_radial_83_1630" cx="0" cy="0" r="1" gradientUnits="userSpaceOnUse" gradientTransform="translate(103.742 76.3639) rotate(57.2385) scale(108.511 136.742)">
<stop stop-color="#50CEFF"/>
<stop offset="0.264583" stop-color="#30C4FE"/>
<stop offset="0.997459" stop-color="#179CD2"/>
</radialGradient>
</defs>
</svg>
